<?xml version="1.0" standalone="no"?>
<!DOCTYPE svg PUBLIC "-//W3C//DTD SVG 20010904//EN"
 "http://www.w3.org/TR/2001/REC-SVG-20010904/DTD/svg10.dtd">
<svg version="1.0" xmlns="http://www.w3.org/2000/svg"
 width="1024.000000pt" height="1024.000000pt" viewBox="0 0 1024.000000 1024.000000"
 preserveAspectRatio="xMidYMid meet">
<metadata>
Created by potrace 1.11, written by Peter Selinger 2001-2013
</metadata>
<g transform="translate(0.000000,1024.000000) scale(0.100000,-0.100000)"
fill="#000000" stroke="none">
<path d="M1137 10224 c-292 -45 -541 -174 -753 -389 -184 -186 -308 -421 -361
-683 -17 -82 -18 -293 -18 -4032 0 -3739 1 -3950 18 -4032 54 -268 179 -501
372 -693 187 -187 400 -305 670 -368 l90 -22 3915 -3 c3532 -2 3926 -1 4024
13 506 74 928 434 1084 925 66 208 62 -93 62 4180 0 3471 -2 3883 -16 3978
-42 284 -172 541 -379 747 -187 187 -400 305 -670 368 l-90 22 -3930 1 c-3296
2 -3944 0 -4018 -12z m4409 -1429 c840 -88 1570 -442 2188 -1061 621 -620 968
-1338 1062 -2196 23 -209 23 -627 0 -836 -51 -471 -169 -868 -375 -1267 -175
-339 -388 -628 -676 -918 -628 -631 -1342 -978 -2207 -1073 -209 -23 -627 -23
-836 0 -858 94 -1576 441 -2196 1062 -621 620 -968 1338 -1062 2196 -23 209
-23 627 0 836 73 664 298 1246 679 1754 603 807 1415 1316 2347 1472 125 21
246 34 465 50 99 8 468 -4 611 -19z"/>
<path d="M4765 8054 c-539 -59 -1042 -268 -1475 -614 -135 -108 -382 -355
-490 -490 -229 -287 -420 -647 -514 -971 -86 -299 -111 -488 -111 -859 0 -371
25 -560 111 -859 94 -324 285 -684 514 -971 108 -135 355 -382 490 -490 287
-229 647 -420 971 -514 299 -86 488 -111 859 -111 371 0 560 25 859 111 324
94 684 285 971 514 135 108 382 355 490 490 423 530 630 1130 630 1830 0 700
-207 1300 -630 1830 -108 135 -355 382 -490 490 -439 351 -939 557 -1492 615
-181 19 -514 18 -693 -1z m684 -739 c378 -56 714 -197 1013 -427 120 -92 334
-306 426 -426 187 -244 324 -531 391 -822 42 -180 54 -297 54 -520 0 -375 -61
-654 -213 -965 -257 -527 -744 -960 -1283 -1138 -238 -80 -442 -111 -717 -111
-275 0 -478 31 -718 110 -535 177 -1025 611 -1282 1139 -150 307 -214 595
-214 965 0 275 31 479 111 717 178 539 611 1027 1138 1283 256 125 490 186
815 214 87 8 373 -4 479 -19z"/>
<path d="M4875 6574 c-202 -31 -408 -113 -587 -236 -121 -82 -304 -265 -386
-386 -185 -271 -260 -540 -249 -887 10 -311 80 -530 250 -779 80 -118 265
-303 383 -383 249 -170 468 -240 779 -250 274 -9 466 28 682 132 162 77 280
162 413 295 291 291 430 627 430 1040 0 241 -41 432 -135 627 -77 162 -162
280 -295 413 -232 232 -497 369 -803 414 -128 19 -358 19 -482 0z m444 -744
c40 -11 99 -34 130 -50 127 -64 267 -204 331 -331 100 -198 100 -460 0 -658
-64 -127 -204 -267 -331 -331 -198 -100 -460 -100 -658 0 -127 64 -267 204
-331 331 -100 198 -100 460 0 658 86 171 268 325 445 377 134 38 283 40 414 4z"/>
</g>
</svg>
